<svg width="400" height="400" viewBox="0 0 400 400" fill="none" xmlns="http://www.w3.org/2000/svg">
<circle cx="200" cy="200" r="200" fill="black"/>
<path d="M68.6797 94L141.176 214.001L184.678 142.499L191.18 142.499L191.18 270.499" stroke="white" stroke-width="18"/>
<line x1="225" y1="140" x2="314" y2="140" stroke="white" stroke-width="18"/>
<line x1="271" y1="166" x2="271" y2="354" stroke="white" stroke-width="18"/>
<path fill-rule="evenodd" clip-rule="evenodd" d="M84 165.546L84 269H101L101 194.856L84 165.546ZM101 153V138H92.3L101 153Z" fill="white"/>
<mask id="path-6-inside-1_3137_64" fill="white">
<path fill-rule="evenodd" clip-rule="evenodd" d="M200.5 384C215.488 384 230.055 382.203 244 378.813V357.112C230.155 360.949 215.567 363 200.5 363C110.754 363 38 290.246 38 200.5C38 159.325 53.3138 121.727 78.5565 93.091L67.1083 74.4878C36.0455 107.358 17 151.705 17 200.5C17 301.844 99.1557 384 200.5 384ZM79.6421 62.4184C111.925 34.1395 154.211 17 200.5 17C301.844 17 384 99.1557 384 200.5C384 280.272 333.097 348.156 262 373.44V350.959C321.255 326.714 363 268.482 363 200.5C363 110.754 290.246 38 200.5 38C158.23 38 119.73 54.1391 90.8255 80.5914L79.6421 62.4184Z"/>
</mask>
<path fill-rule="evenodd" clip-rule="evenodd" d="M200.5 384C215.488 384 230.055 382.203 244 378.813V357.112C230.155 360.949 215.567 363 200.5 363C110.754 363 38 290.246 38 200.5C38 159.325 53.3138 121.727 78.5565 93.091L67.1083 74.4878C36.0455 107.358 17 151.705 17 200.5C17 301.844 99.1557 384 200.5 384ZM79.6421 62.4184C111.925 34.1395 154.211 17 200.5 17C301.844 17 384 99.1557 384 200.5C384 280.272 333.097 348.156 262 373.44V350.959C321.255 326.714 363 268.482 363 200.5C363 110.754 290.246 38 200.5 38C158.23 38 119.73 54.1391 90.8255 80.5914L79.6421 62.4184Z" fill="white"/>
<path d="M244 378.813L244.236 379.785L245 379.599V378.813H244ZM244 357.112H245V355.797L243.733 356.149L244 357.112ZM78.5565 93.091L79.3067 93.7523L79.796 93.1972L79.4082 92.5669L78.5565 93.091ZM67.1083 74.4878L67.96 73.9637L67.2768 72.8535L66.3815 73.8009L67.1083 74.4878ZM79.6421 62.4184L78.9832 61.6662L78.3476 62.2229L78.7904 62.9425L79.6421 62.4184ZM262 373.44H261V374.857L262.335 374.382L262 373.44ZM262 350.959L261.621 350.033L261 350.288V350.959H262ZM90.8255 80.5914L89.9738 81.1155L90.608 82.146L91.5006 81.3291L90.8255 80.5914ZM243.764 377.842C229.896 381.213 215.407 383 200.5 383V385C215.568 385 230.215 383.194 244.236 379.785L243.764 377.842ZM243 357.112V378.813H245V357.112H243ZM200.5 364C215.658 364 230.336 361.937 244.267 358.076L243.733 356.149C229.974 359.962 215.476 362 200.5 362V364ZM37 200.5C37 290.799 110.201 364 200.5 364V362C111.306 362 39 289.694 39 200.5H37ZM77.8063 92.4298C52.4088 121.242 37 159.073 37 200.5H39C39 159.578 54.2188 122.213 79.3067 93.7523L77.8063 92.4298ZM79.4082 92.5669L67.96 73.9637L66.2567 75.0119L77.7048 93.6151L79.4082 92.5669ZM18 200.5C18 151.97 36.9408 107.867 67.8351 75.1746L66.3815 73.8009C35.1503 106.849 16 151.439 16 200.5H18ZM200.5 383C99.708 383 18 301.292 18 200.5H16C16 302.397 98.6035 385 200.5 385V383ZM80.301 63.1706C112.408 35.0453 154.462 18 200.5 18V16C153.959 16 111.441 33.2337 78.9832 61.6662L80.301 63.1706ZM200.5 18C301.292 18 383 99.708 383 200.5H385C385 98.6035 302.397 16 200.5 16V18ZM383 200.5C383 279.836 332.376 347.351 261.665 372.498L262.335 374.382C333.818 348.961 385 280.709 385 200.5H383ZM263 373.44V350.959H261V373.44H263ZM262.379 351.885C321.996 327.491 364 268.902 364 200.5H362C362 268.062 320.513 325.936 261.621 350.033L262.379 351.885ZM364 200.5C364 110.201 290.799 37 200.5 37V39C289.694 39 362 111.306 362 200.5H364ZM200.5 37C157.971 37 119.232 53.2393 90.1504 79.8537L91.5006 81.3291C120.228 55.0389 158.49 39 200.5 39V37ZM78.7904 62.9425L89.9738 81.1155L91.6771 80.0673L80.4937 61.8943L78.7904 62.9425Z" fill="white" mask="url(#path-6-inside-1_3137_64)"/>
</svg>
