<svg width="16" height="16" viewBox="0 0 16 16" fill="none" xmlns="http://www.w3.org/2000/svg">
<path fill-rule="evenodd" clip-rule="evenodd" d="M7.94657 0C3.55232 0 0 3.57851 0 8.00562C0 11.5444 2.27609 14.54 5.43364 15.6002C5.82842 15.6799 5.97302 15.4279 5.97302 15.216C5.97302 15.0304 5.96001 14.3942 5.96001 13.7314C3.74947 14.2086 3.28914 12.7771 3.28914 12.7771C2.93389 11.8493 2.40752 11.6108 2.40752 11.6108C1.68401 11.1204 2.46023 11.1204 2.46023 11.1204C3.26279 11.1734 3.68391 11.9421 3.68391 11.9421C4.39425 13.1614 5.53888 12.8169 5.99937 12.6048C6.06509 12.0879 6.27573 11.73 6.49939 11.5313C4.73632 11.3457 2.88135 10.6565 2.88135 7.5814C2.88135 6.70662 3.19691 5.99091 3.69693 5.43429C3.61804 5.23552 3.34168 4.4136 3.77598 3.31354C3.77598 3.31354 4.44695 3.10143 5.95985 4.13529C6.60757 3.96005 7.27556 3.87091 7.94657 3.87016C8.61754 3.87016 9.30152 3.96304 9.93313 4.13529C11.4462 3.10143 12.1172 3.31354 12.1172 3.31354C12.5515 4.4136 12.2749 5.23552 12.1961 5.43429C12.7092 5.99091 13.0118 6.70662 13.0118 7.5814C13.0118 10.6565 11.1568 11.3323 9.38058 11.5313C9.67011 11.7831 9.91996 12.2601 9.91996 13.0157C9.91996 14.0892 9.90694 14.9509 9.90694 15.2158C9.90694 15.4279 10.0517 15.6799 10.4463 15.6004C13.6039 14.5398 15.88 11.5444 15.88 8.00562C15.893 3.57851 12.3276 0 7.94657 0Z" fill="white"/>
</svg>
