<svg width="367" height="367" viewBox="0 0 367 367" fill="none" xmlns="http://www.w3.org/2000/svg">
<path d="M51.6797 77L124.176 197.001L167.678 125.499L174.18 125.499L174.18 253.499" stroke="white" stroke-width="18"/>
<line x1="208" y1="123" x2="297" y2="123" stroke="white" stroke-width="18"/>
<line x1="254" y1="149" x2="254" y2="337" stroke="white" stroke-width="18"/>
<path fill-rule="evenodd" clip-rule="evenodd" d="M67 148.546L67 252H84L84 177.856L67 148.546ZM84 136V121H75.3L84 136Z" fill="white"/>
<mask id="path-5-inside-1_3118_78" fill="white">
<path fill-rule="evenodd" clip-rule="evenodd" d="M183.5 367C198.488 367 213.055 365.203 227 361.813V340.112C213.155 343.949 198.567 346 183.5 346C93.7537 346 21 273.246 21 183.5C21 142.325 36.3138 104.727 61.5565 76.091L50.1083 57.4878C19.0455 90.358 0 134.705 0 183.5C0 284.844 82.1557 367 183.5 367ZM62.6421 45.4184C94.9249 17.1395 137.211 0 183.5 0C284.844 0 367 82.1557 367 183.5C367 263.272 316.097 331.156 245 356.44V333.959C304.255 309.714 346 251.482 346 183.5C346 93.7537 273.246 21 183.5 21C141.23 21 102.73 37.1391 73.8255 63.5914L62.6421 45.4184Z"/>
</mask>
<path fill-rule="evenodd" clip-rule="evenodd" d="M183.5 367C198.488 367 213.055 365.203 227 361.813V340.112C213.155 343.949 198.567 346 183.5 346C93.7537 346 21 273.246 21 183.5C21 142.325 36.3138 104.727 61.5565 76.091L50.1083 57.4878C19.0455 90.358 0 134.705 0 183.5C0 284.844 82.1557 367 183.5 367ZM62.6421 45.4184C94.9249 17.1395 137.211 0 183.5 0C284.844 0 367 82.1557 367 183.5C367 263.272 316.097 331.156 245 356.44V333.959C304.255 309.714 346 251.482 346 183.5C346 93.7537 273.246 21 183.5 21C141.23 21 102.73 37.1391 73.8255 63.5914L62.6421 45.4184Z" fill="white"/>
<path d="M227 361.813L227.236 362.785L228 362.599V361.813H227ZM227 340.112H228V338.797L226.733 339.149L227 340.112ZM61.5565 76.091L62.3067 76.7523L62.796 76.1972L62.4082 75.5669L61.5565 76.091ZM50.1083 57.4878L50.96 56.9637L50.2768 55.8535L49.3815 56.8009L50.1083 57.4878ZM62.6421 45.4184L61.9832 44.6662L61.3476 45.2229L61.7904 45.9425L62.6421 45.4184ZM245 356.44H244V357.857L245.335 357.382L245 356.44ZM245 333.959L244.621 333.033L244 333.288V333.959H245ZM73.8255 63.5914L72.9738 64.1155L73.608 65.146L74.5006 64.3291L73.8255 63.5914ZM226.764 360.842C212.896 364.213 198.407 366 183.5 366V368C198.568 368 213.215 366.194 227.236 362.785L226.764 360.842ZM226 340.112V361.813H228V340.112H226ZM183.5 347C198.658 347 213.336 344.937 227.267 341.076L226.733 339.149C212.974 342.962 198.476 345 183.5 345V347ZM20 183.5C20 273.799 93.2014 347 183.5 347V345C94.306 345 22 272.694 22 183.5H20ZM60.8063 75.4298C35.4088 104.242 20 142.073 20 183.5H22C22 142.578 37.2188 105.213 62.3067 76.7523L60.8063 75.4298ZM62.4082 75.5669L50.96 56.9637L49.2567 58.0119L60.7048 76.6151L62.4082 75.5669ZM1 183.5C1 134.97 19.9408 90.8666 50.8351 58.1746L49.3815 56.8009C18.1503 89.8494 -1 134.439 -1 183.5H1ZM183.5 366C82.708 366 1 284.292 1 183.5H-1C-1 285.397 81.6035 368 183.5 368V366ZM63.301 46.1706C95.4085 18.0453 137.462 1 183.5 1V-1C136.959 -1 94.4413 16.2337 61.9832 44.6662L63.301 46.1706ZM183.5 1C284.292 1 366 82.708 366 183.5H368C368 81.6035 285.397 -1 183.5 -1V1ZM366 183.5C366 262.836 315.376 330.351 244.665 355.498L245.335 357.382C316.818 331.961 368 263.709 368 183.5H366ZM246 356.44V333.959H244V356.44H246ZM245.379 334.885C304.996 310.491 347 251.902 347 183.5H345C345 251.062 303.513 308.936 244.621 333.033L245.379 334.885ZM347 183.5C347 93.2014 273.799 20 183.5 20V22C272.694 22 345 94.306 345 183.5H347ZM183.5 20C140.971 20 102.232 36.2393 73.1504 62.8537L74.5006 64.3291C103.228 38.0389 141.49 22 183.5 22V20ZM61.7904 45.9425L72.9738 64.1155L74.6771 63.0673L63.4937 44.8943L61.7904 45.9425Z" fill="white" mask="url(#path-5-inside-1_3118_78)"/>
</svg>
