<svg width="367" height="367" viewBox="0 0 367 367" fill="none" xmlns="http://www.w3.org/2000/svg">
<path d="M51.6797 77L124.176 197.001L167.678 125.499L174.18 125.499L174.18 253.499" stroke="black" stroke-width="18"/>
<line x1="208" y1="123" x2="297" y2="123" stroke="black" stroke-width="18"/>
<line x1="254" y1="149" x2="254" y2="337" stroke="black" stroke-width="18"/>
<path fill-rule="evenodd" clip-rule="evenodd" d="M67 148.546L67 252H84L84 177.856L67 148.546ZM84 136V121H75.3L84 136Z" fill="black"/>
<path fill-rule="evenodd" clip-rule="evenodd" d="M183.5 367C198.488 367 213.055 365.203 227 361.813V340.112C213.155 343.949 198.567 346 183.5 346C93.7537 346 21 273.246 21 183.5C21 142.325 36.3138 104.727 61.5565 76.091L50.1083 57.4878C19.0455 90.358 0 134.705 0 183.5C0 284.844 82.1557 367 183.5 367ZM62.6421 45.4184C94.9249 17.1395 137.211 0 183.5 0C284.844 0 367 82.1557 367 183.5C367 263.272 316.097 331.156 245 356.44V333.959C304.255 309.714 346 251.482 346 183.5C346 93.7537 273.246 21 183.5 21C141.23 21 102.73 37.1391 73.8255 63.5914L62.6421 45.4184Z" fill="black"/>
</svg>
