<svg width="1492" height="367" viewBox="0 0 1492 367" fill="none" xmlns="http://www.w3.org/2000/svg">
<path d="M51.6797 77L124.176 197.001L167.678 125.499L174.18 125.499L174.18 253.499" stroke="black" stroke-width="18"/>
<line x1="208" y1="123" x2="297" y2="123" stroke="black" stroke-width="18"/>
<line x1="254" y1="149" x2="254" y2="337" stroke="black" stroke-width="18"/>
<path fill-rule="evenodd" clip-rule="evenodd" d="M67 148.546L67 252H84L84 177.856L67 148.546ZM84 136V121H75.3L84 136Z" fill="black"/>
<path fill-rule="evenodd" clip-rule="evenodd" d="M183.5 367C198.488 367 213.055 365.203 227 361.813V340.112C213.155 343.949 198.567 346 183.5 346C93.7537 346 21 273.246 21 183.5C21 142.325 36.3138 104.727 61.5565 76.091L50.1083 57.4878C19.0455 90.358 0 134.705 0 183.5C0 284.844 82.1557 367 183.5 367ZM62.6421 45.4184C94.9249 17.1395 137.211 0 183.5 0C284.844 0 367 82.1557 367 183.5C367 263.272 316.097 331.156 245 356.44V333.959C304.255 309.714 346 251.482 346 183.5C346 93.7537 273.246 21 183.5 21C141.23 21 102.73 37.1391 73.8255 63.5914L62.6421 45.4184Z" fill="black"/>
<path d="M460.08 238.36C455.493 238.573 452.08 238.733 449.84 238.84C447.6 238.947 446.107 239 445.36 239C444.72 239 444.4 239 444.4 239C443.227 239 442.533 238.36 442.32 237.08C442.107 235.693 442 234.733 442 234.2L455.6 230.68L460.56 135.48L447.44 131.96C447.44 131.427 447.547 130.467 447.76 129.08C447.973 127.693 448.667 127 449.84 127C449.84 127 451.707 127.053 455.44 127.16C459.173 127.16 465.947 127.32 475.76 127.64L509.2 209.56L546.16 127.64C555.973 127.32 562.64 127.16 566.16 127.16C569.68 127.053 571.44 127 571.44 127C572.613 127 573.307 127.693 573.52 129.08C573.733 130.467 573.84 131.427 573.84 131.96L560.72 135.48L565.68 230.68L579.28 234.2C579.28 234.733 579.173 235.693 578.96 237.08C578.747 238.36 578.053 239 576.88 239C576.88 239 575.44 239 572.56 239C569.787 238.893 564.933 238.68 558 238.36L539.92 239C538.64 239 537.893 238.36 537.68 237.08C537.467 235.8 537.36 234.84 537.36 234.2L552.56 230.68L549.2 142.84L508.72 231H505.68L468.72 143.96L465.04 230.68L480.24 234.2C480.24 234.84 480.133 235.8 479.92 237.08C479.707 238.36 478.96 239 477.68 239L460.08 238.36ZM602.353 167.96L592.113 165.72C592.113 165.08 592.219 164.12 592.433 162.84C592.753 161.453 593.606 160.76 594.993 160.76C594.993 160.76 595.846 160.813 597.553 160.92C599.259 160.92 602.833 161.027 608.273 161.24C613.286 161.027 616.699 160.92 618.513 160.92C620.326 160.813 621.233 160.76 621.233 160.76C622.619 160.76 623.419 161.453 623.633 162.84C623.846 164.12 623.953 165.027 623.953 165.56L613.713 167.96V231.8L623.953 234.04C623.953 234.68 623.846 235.693 623.633 237.08C623.419 238.36 622.619 239 621.233 239L608.273 238.04L594.993 239C593.606 239 592.753 238.36 592.433 237.08C592.219 235.693 592.113 234.68 592.113 234.04L602.353 231.8V167.96ZM705.008 215.96L704.048 232.92C700.528 235.373 696.474 237.24 691.888 238.52C687.301 239.693 682.394 240.28 677.168 240.28C669.808 240.28 663.194 238.787 657.328 235.8C651.461 232.813 646.821 228.28 643.408 222.2C639.994 216.12 638.288 208.547 638.288 199.48C638.288 190.733 640.101 183.427 643.728 177.56C647.461 171.587 652.421 167.107 658.608 164.12C664.794 161.027 671.621 159.48 679.088 159.48C688.688 159.48 697.114 161.827 704.368 166.52L701.008 184.12C700.581 184.12 699.781 184.12 698.608 184.12C697.541 184.013 696.528 183.8 695.568 183.48C694.608 183.053 694.128 182.413 694.128 181.56V170.04C692.208 169.4 689.701 168.867 686.608 168.44C683.621 168.013 680.848 167.8 678.288 167.8C675.514 167.8 672.688 168.067 669.808 168.6C666.928 169.027 664.368 169.56 662.128 170.2C658.821 172.653 656.048 176.547 653.807 181.88C651.674 187.107 650.608 193.027 650.608 199.64C650.608 207 651.834 213.133 654.288 218.04C656.741 222.947 660.048 226.627 664.208 229.08C668.474 231.427 673.168 232.6 678.288 232.6C681.701 232.6 684.794 232.333 687.568 231.8C690.448 231.267 693.061 230.307 695.408 228.92L698.128 218.04C698.554 217.08 699.674 216.493 701.488 216.28C703.301 216.067 704.474 215.96 705.008 215.96ZM783.579 167.96L772.859 165.72C772.859 165.08 772.965 164.12 773.179 162.84C773.499 161.453 774.352 160.76 775.739 160.76C775.739 160.76 776.592 160.813 778.299 160.92C780.005 160.92 783.579 161.027 789.019 161.24C794.032 161.027 797.445 160.92 799.259 160.92C801.072 160.813 801.979 160.76 801.979 160.76C803.365 160.76 804.165 161.453 804.379 162.84C804.592 164.12 804.699 165.027 804.699 165.56L794.459 167.96V231.8L804.699 234.04C804.699 234.68 804.592 235.693 804.379 237.08C804.165 238.36 803.365 239 801.979 239L789.019 238.04L775.739 239C774.352 239 773.499 238.36 773.179 237.08C772.965 235.693 772.859 234.68 772.859 234.04L783.579 231.8L782.299 201.88L743.259 203.48L742.139 231.8L752.859 234.04C752.859 234.68 752.752 235.693 752.539 237.08C752.325 238.36 751.525 239 750.139 239L737.179 238.04L723.899 239C722.512 239 721.659 238.36 721.339 237.08C721.125 235.693 721.019 234.68 721.019 234.04L731.259 231.8V167.96L721.019 165.72C721.019 165.08 721.125 164.12 721.339 162.84C721.659 161.453 722.512 160.76 723.899 160.76C723.899 160.76 724.752 160.813 726.459 160.92C728.165 160.92 731.739 161.027 737.179 161.24C742.192 161.027 745.605 160.92 747.419 160.92C749.232 160.813 750.139 160.76 750.139 160.76C751.525 160.76 752.325 161.453 752.539 162.84C752.752 164.12 752.859 165.027 752.859 165.56L742.139 167.96L743.419 195.16H782.299L783.579 167.96ZM833.309 231.8L844.029 234.04C844.029 234.787 843.922 235.8 843.709 237.08C843.495 238.36 842.642 239 841.149 239C841.149 239 840.829 239 840.189 239C839.655 239 838.429 238.947 836.509 238.84C834.589 238.733 831.495 238.627 827.229 238.52L816.189 239C814.375 239 813.469 237.4 813.469 234.2L822.749 231.8L849.789 160.76H860.189L887.549 231.64L896.829 234.2C896.829 234.733 896.722 235.693 896.509 237.08C896.295 238.36 895.495 239 894.109 239C894.109 239 893.202 239 891.389 239C889.575 238.893 886.162 238.733 881.149 238.52C875.495 238.733 871.762 238.893 869.949 239C868.135 239 867.229 239 867.229 239C865.842 239 864.989 238.36 864.669 237.08C864.455 235.8 864.349 234.787 864.349 234.04L875.229 231.8L868.829 214.04L839.069 215.64L833.309 231.8ZM853.949 173.08L841.789 207.32H866.269L853.949 173.08ZM961.386 239L921.866 238.04L908.586 239C907.2 239 906.346 238.36 906.026 237.08C905.813 235.693 905.706 234.68 905.706 234.04L915.946 231.8V167.96L905.706 165.72C905.706 165.08 905.813 164.12 906.026 162.84C906.346 161.453 907.2 160.76 908.586 160.76C908.586 160.76 909.44 160.813 911.146 160.92C912.853 160.92 916.426 161.027 921.866 161.24L960.586 160.76C962.08 160.76 963.253 160.867 964.106 161.08C964.96 161.187 965.386 161.827 965.386 163L962.506 179.96C962.08 179.96 961.333 179.96 960.266 179.96C959.2 179.853 958.186 179.64 957.226 179.32C956.373 178.893 955.946 178.307 955.946 177.56V168.28L926.666 168.6L928.106 195.16H957.706V201.72L927.946 203.48L926.666 231.16H957.386L960.106 222.04C960.426 220.867 961.066 220.12 962.026 219.8C962.986 219.48 964.586 219.32 966.826 219.32L965.866 237.08C965.76 237.933 965.333 238.467 964.586 238.68C963.946 238.893 962.88 239 961.386 239ZM1034.25 239L999.054 238.04L985.774 239C984.387 239 983.534 238.36 983.214 237.08C983 235.693 982.894 234.68 982.894 234.04L993.134 231.8V167.96L982.894 165.72C982.894 165.08 983.054 164.12 983.374 162.84C983.8 161.453 984.6 160.76 985.774 160.76L999.054 161.24L1012.01 160.76C1013.19 160.76 1013.93 161.293 1014.25 162.36C1014.57 163.427 1014.73 164.493 1014.73 165.56L1004.49 167.96V231.16H1030.25L1032.97 222.04C1033.29 220.867 1033.93 220.12 1034.89 219.8C1035.85 219.48 1037.45 219.32 1039.69 219.32L1038.73 237.08C1038.63 237.933 1038.2 238.52 1037.45 238.84C1036.81 239.053 1035.75 239.107 1034.25 239ZM1125.46 127.8L1164.66 127C1166.15 127 1167.33 127.053 1168.18 127.16C1169.14 127.267 1169.67 127.747 1169.78 128.6L1168.02 153.72C1167.59 153.72 1166.85 153.72 1165.78 153.72C1164.71 153.613 1163.7 153.4 1162.74 153.08C1161.78 152.76 1161.3 152.227 1161.3 151.48L1158.9 135L1131.38 135.64L1132.18 183L1131.38 230.68L1149.46 234.2C1149.46 234.733 1149.35 235.693 1149.14 237.08C1148.93 238.36 1148.23 239 1147.06 239C1147.06 239 1145.41 239 1142.1 239C1138.79 238.893 1133.41 238.68 1125.94 238.36C1118.47 238.68 1112.93 238.893 1109.3 239C1105.78 239 1104.02 239 1104.02 239C1102.85 239 1102.15 238.36 1101.94 237.08C1101.73 235.693 1101.62 234.733 1101.62 234.2L1119.7 230.68L1118.9 183L1119.7 135.64L1092.18 135L1089.78 151.48C1089.67 152.227 1089.14 152.76 1088.18 153.08C1087.33 153.4 1086.37 153.613 1085.3 153.72C1084.23 153.72 1083.49 153.72 1083.06 153.72L1081.3 128.6C1081.41 127.747 1081.94 127.267 1082.9 127.16C1083.86 127.053 1085.03 127 1086.42 127L1125.46 127.8ZM1189.7 167.96L1179.46 165.72C1179.46 165.08 1179.56 164.12 1179.78 162.84C1180.1 161.453 1180.95 160.76 1182.34 160.76C1182.34 160.76 1183.19 160.813 1184.9 160.92C1186.6 160.92 1190.18 161.027 1195.62 161.24C1200.63 161.027 1204.04 160.92 1205.86 160.92C1207.67 160.813 1208.58 160.76 1208.58 160.76C1209.96 160.76 1210.76 161.453 1210.98 162.84C1211.19 164.12 1211.3 165.027 1211.3 165.56L1201.06 167.96V231.8L1211.3 234.04C1211.3 234.68 1211.19 235.693 1210.98 237.08C1210.76 238.36 1209.96 239 1208.58 239L1195.62 238.04L1182.34 239C1180.95 239 1180.1 238.36 1179.78 237.08C1179.56 235.693 1179.46 234.68 1179.46 234.04L1189.7 231.8V167.96ZM1281.95 219.48C1281.95 226.307 1279.23 231.48 1273.79 235C1268.35 238.52 1261.52 240.28 1253.31 240.28C1245.1 240.28 1236.4 238.467 1227.23 234.84C1227.34 233.56 1227.55 231.853 1227.87 229.72C1228.3 227.48 1228.72 225.293 1229.15 223.16C1229.68 220.92 1230.11 219.053 1230.43 217.56C1230.75 215.96 1230.96 215.16 1231.07 215.16C1231.5 215.16 1232.19 215.213 1233.15 215.32C1234.11 215.32 1235.02 215.48 1235.87 215.8C1236.72 216.12 1237.15 216.707 1237.15 217.56V229.08C1239.6 230.36 1242.32 231.32 1245.31 231.96C1248.4 232.6 1251.34 232.92 1254.11 232.92C1259.66 232.92 1263.66 231.747 1266.11 229.4C1268.67 227.053 1269.95 224.227 1269.95 220.92C1269.95 219.32 1269.36 217.453 1268.19 215.32C1267.02 213.187 1264.99 211.32 1262.11 209.72L1241.63 198.68C1237.58 196.44 1234.43 193.667 1232.19 190.36C1230.06 187.053 1228.99 183.747 1228.99 180.44C1228.99 176.813 1230.06 173.453 1232.19 170.36C1234.32 167.16 1237.47 164.547 1241.63 162.52C1245.79 160.493 1250.86 159.48 1256.83 159.48C1260.24 159.48 1263.76 159.907 1267.39 160.76C1271.12 161.507 1274.75 162.467 1278.27 163.64L1274.91 182.04C1274.48 182.04 1273.68 182.04 1272.51 182.04C1271.44 181.933 1270.43 181.72 1269.47 181.4C1268.51 180.973 1268.03 180.387 1268.03 179.64V169.08C1266.43 168.547 1264.56 168.067 1262.43 167.64C1260.3 167.213 1258.16 167 1256.03 167C1252.94 167 1249.9 167.533 1246.91 168.6C1244.03 169.667 1241.68 171.587 1239.87 174.36C1239.44 175.64 1239.23 177.027 1239.23 178.52C1239.23 183.107 1242 186.893 1247.55 189.88L1267.55 200.44C1272.46 203 1276.08 205.987 1278.43 209.4C1280.78 212.813 1281.95 216.173 1281.95 219.48ZM1303.65 160.76L1323.97 161.72L1347.65 215.64L1373.89 161.72L1392.93 160.76C1393.79 160.76 1394.43 161.347 1394.85 162.52C1395.39 163.693 1395.65 164.813 1395.65 165.88L1385.57 168.28L1389.41 231.8C1390.8 232.227 1392.51 232.6 1394.53 232.92C1396.67 233.24 1398.37 233.613 1399.65 234.04C1399.65 234.68 1399.55 235.693 1399.33 237.08C1399.12 238.36 1398.32 239 1396.93 239L1383.33 238.04L1370.05 239C1368.67 239 1367.81 238.36 1367.49 237.08C1367.28 235.8 1367.17 234.787 1367.17 234.04L1378.37 231.64L1375.97 176.76L1348.13 233.56H1344.45L1319.01 177.88L1316.93 231.8C1318.64 232.227 1320.51 232.653 1322.53 233.08C1324.56 233.4 1326.37 233.72 1327.97 234.04C1327.97 234.787 1327.81 235.8 1327.49 237.08C1327.28 238.36 1326.43 239 1324.93 239L1311.81 238.04L1299.81 239C1298.43 239 1297.63 238.36 1297.41 237.08C1297.2 235.693 1297.09 234.68 1297.09 234.04L1307.33 231.8L1311.01 168.12L1300.93 165.88C1300.93 165.347 1301.04 164.387 1301.25 163C1301.47 161.507 1302.27 160.76 1303.65 160.76ZM1427.53 231.8L1438.25 234.04C1438.25 234.787 1438.14 235.8 1437.93 237.08C1437.71 238.36 1436.86 239 1435.37 239C1435.37 239 1435.05 239 1434.41 239C1433.87 239 1432.65 238.947 1430.73 238.84C1428.81 238.733 1425.71 238.627 1421.45 238.52L1410.41 239C1408.59 239 1407.69 237.4 1407.69 234.2L1416.97 231.8L1444.01 160.76H1454.41L1481.77 231.64L1491.05 234.2C1491.05 234.733 1490.94 235.693 1490.73 237.08C1490.51 238.36 1489.71 239 1488.33 239C1488.33 239 1487.42 239 1485.61 239C1483.79 238.893 1480.38 238.733 1475.37 238.52C1469.71 238.733 1465.98 238.893 1464.17 239C1462.35 239 1461.45 239 1461.45 239C1460.06 239 1459.21 238.36 1458.89 237.08C1458.67 235.8 1458.57 234.787 1458.57 234.04L1469.45 231.8L1463.05 214.04L1433.29 215.64L1427.53 231.8ZM1448.17 173.08L1436.01 207.32H1460.49L1448.17 173.08Z" fill="black"/>
</svg>
